# xmcd CD database file
#
# Track frame offsets:
#	150
#	15985
#	33512
#	52390
#	67045
#	84533
#	102330
#	121587
#	136722
#	153857
#	167522
#	186195
#
# Disc length: 2722 seconds
#
# Revision: 2
# Processed by: cddbd v1.4PL0 Copyright (c) Steve Scherf et al.
# Submitted via: Feurio! 1.66 - http://www.feurio.com
#
DISCID=930aa00c
DTITLE=Paldauer - Der erste Tag nach der Ewigkeit
DYEAR=1900
DGENRE=Blues
TTITLE0=Der erste Tag nach der Ewigkeit
TTITLE1=Angelina , my Love
TTITLE2=Ein Leben mit dir
TTITLE3=Jamaika
TTITLE4=Eine rote Rose
TTITLE5=Ciao Amore
TTITLE6=Sommertraum
TTITLE7=Man sagt - Ich liebe dich
TTITLE8=Ohne dich
TTITLE9=Zärtliche Augen
TTITLE10=Du wolltest frei sein
TTITLE11=Du musst nicht weinen , my Love
EXTD=
EXTT0=
EXTT1=
EXTT2=
EXTT3=
EXTT4=
EXTT5=
EXTT6=
EXTT7=
EXTT8=
EXTT9=
EXTT10=
EXTT11=
PLAYORDER=
